<svg id="light" enable-background="new 0 0 24 24" height="512" viewBox="0 0 24 24" width="512" xmlns="http://www.w3.org/2000/svg"><g><path d="m7.5 24c-.3 0-.5-.2-.5-.5v-23c0-.3.2-.5.5-.5s.5.2.5.5v23c0 .3-.2.5-.5.5z"/></g><g><path d="m16.5 24c-.3 0-.5-.2-.5-.5v-23c0-.3.2-.5.5-.5s.5.2.5.5v23c0 .3-.2.5-.5.5z"/></g><g><path d="m23.5 8h-23c-.3 0-.5-.2-.5-.5s.2-.5.5-.5h23c.3 0 .5.2.5.5s-.2.5-.5.5z"/></g><g><path d="m23.5 17h-23c-.3 0-.5-.2-.5-.5s.2-.5.5-.5h23c.3 0 .5.2.5.5s-.2.5-.5.5z"/></g><g><path d="m12 15c-1.7 0-3-1.3-3-3s1.3-3 3-3 3 1.3 3 3-1.3 3-3 3zm0-5c-1.1 0-2 .9-2 2s.9 2 2 2 2-.9 2-2-.9-2-2-2z"/></g><g><path d="m3 6c-1.7 0-3-1.3-3-3s1.3-3 3-3 3 1.3 3 3-1.3 3-3 3zm0-5c-1.1 0-2 .9-2 2s.9 2 2 2 2-.9 2-2-.9-2-2-2z"/></g><g><path d="m22.5 6c-.1 0-.3 0-.4-.1l-4-4c-.2-.2-.2-.5 0-.7s.5-.2.7 0l4 4c.2.2.2.5 0 .7 0 .1-.2.1-.3.1z"/></g><g><path d="m18.5 6c-.1 0-.3 0-.4-.1-.2-.2-.2-.5 0-.7l4-4c.2-.2.5-.2.7 0s.2.5 0 .7l-4 4c0 .1-.2.1-.3.1z"/></g><g><path d="m22.5 23c-.1 0-.3 0-.4-.1l-4-4c-.2-.2-.2-.5 0-.7s.5-.2.7 0l4 4c.2.2.2.5 0 .7 0 .1-.2.1-.3.1z"/></g><g><path d="m18.5 23c-.1 0-.3 0-.4-.1-.2-.2-.2-.5 0-.7l4-4c.2-.2.5-.2.7 0s.2.5 0 .7l-4 4c0 .1-.2.1-.3.1z"/></g></svg>